<svg width="61" height="60" viewBox="0 0 61 60" fill="none" xmlns="http://www.w3.org/2000/svg">
<mask id="mask0_57_6958" style="mask-type:luminance" maskUnits="userSpaceOnUse" x="2" y="1" width="57" height="58">
<path d="M58.7953 1.875H2.42834V58.242H58.7953V1.875Z" fill="white"/>
</mask>
<g mask="url(#mask0_57_6958)">
<path fill-rule="evenodd" clip-rule="evenodd" d="M34.7899 5.14253C34.4448 4.56736 33.9271 4.0497 33.1794 3.99219L33.4095 4.33729L33.5245 4.56736L33.9271 5.31509L34.0422 5.43012C34.3298 6.12033 34.5023 6.81054 34.5598 7.55826C34.5598 7.96088 34.4448 8.30599 34.3298 8.70861C34.1572 7.73081 33.6395 6.98309 33.0644 6.29288C32.4539 5.66797 31.7053 5.19514 30.8787 4.91246C29.7455 4.46215 28.5033 4.36197 27.3126 4.62488C26.8525 4.6824 26.4499 4.91246 25.9897 5.14253C25.5871 5.3726 25.242 5.71771 24.8969 6.00529C24.0614 6.83587 23.4142 7.83623 22.9988 8.93868C22.6537 9.80144 22.2511 10.6642 21.7335 11.4694C21.3308 12.1596 20.7557 12.7923 20.1805 13.31L18.57 14.4028C17.6243 14.9977 16.7033 15.631 15.8092 16.3009C14.4863 17.4512 13.5085 19.0042 12.9908 20.7297C12.7608 21.5925 12.5882 22.5128 12.7032 23.3755C12.8183 23.8357 12.9333 24.2383 13.1634 24.6409V25.101C12.9333 26.1939 12.8758 27.3442 13.2209 28.437C13.5995 29.7272 14.2463 30.9228 15.119 31.9456L15.9242 33.0384C16.2693 33.6136 16.5569 34.2463 16.6144 34.9365C16.6144 35.4542 16.4419 35.9143 16.0392 36.2594C15.7297 36.5313 15.3513 36.7127 14.9454 36.7838C14.5396 36.8548 14.122 36.8127 13.7386 36.662L13.451 36.4895L13.2209 36.3744L13.1634 36.4895C13.1059 36.547 13.0483 36.662 13.1059 36.7771L13.5085 37.5248C13.8536 37.9849 14.2562 38.33 14.7739 38.5601C15.1765 38.7902 15.6366 38.8477 16.0968 38.7326C16.3843 38.6751 16.6144 38.5601 16.8445 38.3875C16.8445 38.9627 17.017 39.5379 17.1896 40.0555C17.4197 40.6882 17.7648 41.3209 18.2824 41.7811C18.7426 42.2412 19.3177 42.4713 19.8929 42.6438C20.4106 42.8164 20.9282 42.8164 21.4459 42.7013C21.5609 42.6438 21.5609 42.5863 21.5609 42.4713L21.3884 42.0686L21.3308 41.9536L20.8707 40.8033C21.906 41.551 23.1139 41.8961 24.3793 42.0111C25.1845 42.0686 26.0473 41.9536 26.795 41.666C26.9675 41.6085 27.1976 41.4935 27.2551 41.3209C27.3702 41.1484 27.2551 40.9758 27.1976 40.8033L26.9675 39.9405L26.91 39.768C27.4277 40.1131 27.9453 40.3431 28.578 40.3431C29.2682 40.3431 30.016 40.0555 30.4186 39.4804L30.5911 39.4228C30.3034 36.8858 29.7046 34.3938 28.8081 32.0031C28.4192 30.9651 27.938 29.9641 27.3702 29.0122L27.2551 28.6671C27.2551 27.8044 27.1401 26.8266 26.6224 26.1364C27.0251 25.5037 27.0826 24.6984 27.1401 24.0082C27.1401 23.433 27.1401 22.8579 26.8525 22.3402L27.0826 22.2827L27.5427 22.2252C27.6577 22.1677 27.7153 21.9951 27.7728 21.8801C28.1579 20.2816 28.7374 18.7363 29.4983 17.2787L29.9009 16.4734C30.016 16.3009 30.016 16.1283 30.0735 15.8983V15.6682L29.9584 14.863L29.9009 14.3453L31.0513 14.6904H31.6264C34.5334 14.19 37.4974 14.1125 40.4266 14.4603L40.8292 14.5754L41.1168 14.6904C41.2318 14.6904 41.4044 14.6329 41.4619 14.5179C41.6344 14.3453 41.692 14.1152 41.7495 13.8852L41.922 14.0002L42.4397 14.4028L42.8423 14.6329C43.1077 14.6825 43.3778 14.7018 43.6476 14.6904L44.5678 15.6107L44.6253 15.6682C45.8374 17.0541 46.8801 18.5795 47.7313 20.2121C47.9614 20.3846 48.2489 20.2696 48.364 20.0395C48.7666 19.1192 48.8241 18.0839 48.6516 17.1061C48.332 15.6456 47.5686 14.3196 46.4659 13.31C46.1208 12.9074 45.6607 12.5623 45.2005 12.2172L42.7848 10.9518C41.5769 10.4341 40.3116 10.0315 39.0462 9.80144C37.6082 9.51385 36.1703 9.51385 34.6749 9.57137C35.3075 8.93868 35.4801 8.07592 35.4801 7.21316C35.4801 6.46543 35.1925 5.77522 34.7899 5.14253ZM19.9504 15.3806C20.6406 14.5754 21.3308 13.7701 21.8485 12.7923L20.9282 13.7701C20.353 14.2878 19.7204 14.6329 19.0877 15.0355L18.455 15.4381L18.2824 15.4956C17.5347 15.9558 16.7295 16.4734 16.0968 17.0486C14.8314 18.1414 13.9686 19.6369 13.566 21.2474C13.3934 22.1101 13.2784 23.0304 13.5085 23.8932C13.8536 22.8579 14.3712 21.8226 14.9464 20.9023C15.6941 19.7519 16.6144 18.6591 17.5922 17.6813L18.685 16.5885L19.9504 15.3806Z" fill="#262626"/>
<path d="M36.4577 10.3781C38.0682 10.4356 39.6787 10.7232 41.2892 11.2408C43.5405 11.8764 45.5461 13.18 47.0409 14.9794C48.1338 16.4174 48.824 18.1429 49.054 19.9259C49.3645 21.8474 49.4032 23.8029 49.1691 25.7352L48.8815 27.6908L48.6514 28.8411C48.5939 28.9562 48.5939 28.9562 48.4789 28.9562C48.3638 28.7261 48.3638 28.496 48.3638 28.2659C48.3063 27.4032 48.4213 26.5979 48.4789 25.7352C48.5364 24.3548 48.6514 22.9744 48.5364 21.5939L48.1913 19.0057C47.7887 17.3952 47.0409 15.8997 45.8906 14.6919C44.8553 13.6566 43.5899 12.7938 42.267 12.2186C41.0016 11.701 39.7362 11.3559 38.4133 11.1258C37.378 10.9532 36.3427 10.8957 35.3074 10.8957C32.7551 10.8539 30.2302 11.426 27.9452 12.5637C27.1975 13.0814 26.5072 13.7141 25.9321 14.4043C24.1622 16.7275 23.0676 19.494 22.7686 22.3992C22.7111 23.7796 22.7686 25.1025 23.2288 26.4254L23.6314 27.2882L24.3216 27.3457L24.3791 27.5182C24.2066 27.6333 23.9765 27.6333 23.7464 27.6908C23.1712 27.8058 22.5961 28.0359 22.0784 28.381C21.6758 28.6686 21.2732 29.0137 21.0431 29.4738C20.7555 30.049 20.8706 30.7392 20.9856 31.3719C21.2732 32.4647 21.9634 33.5 22.8837 34.1902C23.5163 34.7079 24.3216 34.9955 25.1268 35.1105C25.702 35.2255 26.2772 35.1105 26.8524 35.053C27.1399 35.2831 27.3125 35.7432 27.485 36.0308L28.5204 37.5838C29.4561 38.9136 30.783 39.9189 32.3165 40.4596C33.5819 40.9773 34.9048 41.2649 36.2277 41.5524L38.5859 42.0126L39.5637 42.3002V42.5302H38.8735C37.5805 42.4581 36.2934 42.3044 35.0198 42.0701C33.3093 41.7297 31.6732 41.0869 30.1884 40.172C29.5557 39.7694 28.9805 39.2518 28.5204 38.6191C28.9187 41.0164 28.5985 43.478 27.6001 45.6937C26.7373 47.2467 25.2994 48.4545 23.5739 48.9722C23.4013 49.0297 23.1712 49.0872 22.9987 49.0297C22.8837 49.0297 22.8837 48.9722 22.8837 48.8571C22.9412 48.6846 23.1137 48.5696 23.2288 48.512C23.919 48.0519 24.7242 47.7068 25.4144 47.1891C26.1621 46.5564 26.7948 45.8662 27.1975 45.0035C27.5426 44.1407 27.7726 43.1629 27.8877 42.1851C28.0027 41.4374 28.0602 40.6897 28.0027 39.8844L27.7726 37.6988L26.7373 35.6282L25.6445 35.8582C24.8002 35.8828 23.9631 35.6957 23.2097 35.3139C22.4562 34.9322 21.8103 34.3679 21.3307 33.6726C20.5809 32.7227 20.1754 31.5467 20.1803 30.3366C20.1803 29.8189 20.3529 29.3013 20.6405 28.8986C20.9281 28.496 21.3307 28.1509 21.7333 27.9208C22.0209 27.6908 22.4235 27.5757 22.7686 27.4607L22.251 26.0803C21.9634 24.8149 21.9634 23.492 22.1359 22.2266C22.5126 19.0857 23.7687 16.115 25.7595 13.6566C26.2772 13.0814 26.7948 12.5637 27.4275 12.1611C27.8301 11.931 28.2328 11.8735 28.5779 11.6434C31.0511 10.5506 33.7544 10.2055 36.4577 10.3781Z" fill="#262626"/>
<path d="M35.3067 10.8942C37.6966 10.8053 40.0757 11.2575 42.2663 12.2171C43.5892 12.7922 44.8546 13.655 45.8899 14.6903C47.0403 15.8982 47.788 17.3936 48.1906 19.0041L48.5357 21.5924C48.6507 22.9728 48.5357 24.3532 48.4782 25.7336C48.4207 26.5964 48.3056 27.4016 48.3632 28.2644C48.3632 28.4944 48.3632 28.7245 48.4782 28.9546L48.4207 30.1049C48.3056 30.3925 48.3056 30.6801 48.3056 31.0252C48.1906 32.4056 48.1906 33.8436 47.9605 35.2815C47.903 35.9717 47.788 36.7194 47.5004 37.3521C47.3278 37.8698 47.0403 38.3299 46.6376 38.7325C45.9474 39.4803 45.0847 40.1129 44.1644 40.6306C43.0716 41.2633 41.9212 41.5509 40.8284 42.011C40.5408 42.126 40.2532 42.2411 40.0807 42.4712C40.5408 42.5287 40.9434 42.4712 41.4036 42.3561C41.116 43.0463 41.0585 43.7365 41.0585 44.4267C41.0585 44.7143 41.0009 45.0594 41.116 45.347C41.2885 45.6346 41.5761 45.8647 41.8637 46.0372L43.8768 46.785C45.1422 47.2451 46.35 47.8203 47.6154 48.3379C47.7305 48.568 47.903 48.7405 47.9605 49.0281C48.3056 49.6608 48.3632 50.351 48.1331 51.0412C47.8455 51.789 47.2703 52.4216 46.5801 52.8243C45.6598 53.457 44.5095 53.9171 43.4167 54.2047C38.9444 55.1602 34.3076 55.0221 29.9001 53.8021C28.7498 53.3994 27.5994 52.9968 26.5641 52.4216C25.7589 51.9615 24.8961 51.3863 24.2634 50.6386C23.9183 50.1785 23.6307 49.5458 23.5732 48.9706C24.92 48.5595 26.112 47.7527 26.9942 46.6552C27.8763 45.5576 28.4079 44.22 28.5197 42.8163C28.7498 41.4358 28.7498 39.9979 28.5197 38.6175C28.9798 39.2502 29.555 39.7678 30.1877 40.1705L31.7407 40.9757C33.9956 41.9485 36.4175 42.4759 38.8728 42.5287H39.563V42.2986L38.5852 42.011L36.227 41.5509C34.9041 41.2633 33.5812 40.9757 32.3158 40.458C31.5681 40.1129 30.7629 39.7103 30.0726 39.2502C29.4975 38.7325 28.9798 38.2149 28.5197 37.5822L27.4844 36.0292C27.3118 35.7416 27.1393 35.2815 26.8517 35.0514C26.2765 35.1089 25.7013 35.224 25.1262 35.1089C24.3209 34.9939 23.5157 34.7063 22.883 34.1887C21.9639 33.4776 21.2983 32.4893 20.9849 31.3703C20.8699 30.7376 20.7548 30.0474 21.0424 29.4722C21.2725 29.0121 21.6751 28.667 22.0777 28.3794C22.5954 28.0343 23.1706 27.8042 23.7457 27.6892C23.9758 27.6317 24.2059 27.6317 24.3784 27.5167L24.3209 27.3441L23.6307 27.2866L23.2281 26.4238C22.768 25.1009 22.7104 23.778 22.8255 22.3976C23.1076 19.4981 24.1821 16.7322 25.9314 14.4027C26.5066 13.7125 27.1968 13.0798 27.9445 12.5622C30.2246 11.4045 32.7497 10.8127 35.3067 10.8366V10.8942Z" fill="#FFDECC"/>
<path d="M22.942 29.7578C23.1721 29.7578 23.3446 29.7578 23.5747 29.8728C23.8623 29.9304 24.2074 30.1029 24.3799 30.333C24.495 30.5055 24.495 30.7356 24.3799 30.9082C24.0924 31.2533 23.6897 31.4833 23.4597 31.8284C23.8048 32.0585 24.2649 32.1735 24.6675 32.3461C24.8976 32.4036 25.1277 32.5186 25.3002 32.6912L25.3577 32.8637L24.8976 32.7487L23.5172 32.3461C23.2871 32.2886 23.0571 32.1735 22.9995 31.9435C22.942 31.7709 23.0571 31.5408 23.1721 31.3683L24.0348 30.6206C23.8048 30.218 23.1721 30.1604 22.942 29.7578ZM48.4222 30.1029L48.5372 30.2755L48.6523 31.1957C48.7716 32.902 48.7331 34.6156 48.5372 36.3148C48.4222 36.9475 48.2496 37.6377 47.962 38.2129C46.436 40.2095 44.2924 41.6453 41.8652 42.2966C41.8077 43.1018 41.6927 44.0796 41.7502 44.9999L42.0378 45.2875C42.4979 45.6326 43.0731 45.8051 43.5907 45.9777C44.9361 46.4072 46.2442 46.9458 47.5019 47.5882C47.9045 47.8182 48.2496 48.1058 48.5372 48.4509C48.2496 48.5085 47.962 48.3934 47.6169 48.3359C46.3516 47.8182 45.1437 47.2431 43.8783 46.7829L41.8652 46.0352C41.5776 45.8627 41.29 45.6326 41.1175 45.345C41.0025 45.0574 41.06 44.7123 41.06 44.4247C41.06 43.7345 41.1175 43.0443 41.4051 42.3541C40.9449 42.4691 40.5423 42.5267 40.0822 42.4691C40.2547 42.2391 40.5423 42.124 40.8299 42.009C41.9227 41.5489 43.0731 41.2613 44.1659 40.6286C45.0862 40.1109 45.9489 39.4782 46.6391 38.7305C47.0418 38.3279 47.3294 37.8678 47.5019 37.3501C47.7895 36.7174 47.9045 35.9697 47.962 35.2795C48.1921 33.8415 48.1921 32.4036 48.3071 31.0232C48.3071 30.6781 48.3071 30.3905 48.4222 30.1029Z" fill="#262626"/>
<path d="M46.4653 24.1238C46.9254 24.0662 47.3856 24.1813 47.7307 24.4689C47.9032 24.6414 48.0758 24.8715 48.0758 25.1015C48.1333 25.3891 47.8457 25.6767 47.5581 25.6767C47.3281 25.6192 47.213 25.5042 47.098 25.3316L46.5228 24.929C47.0405 25.8493 46.7529 27.1147 45.9477 27.7473C45.545 28.0924 44.9123 28.2075 44.5097 27.8049C44.1646 27.5173 44.0496 27.1147 44.0496 26.6545C43.9345 26.9421 43.762 27.1722 43.7045 27.4598C43.647 27.5748 43.647 27.6898 43.5319 27.6898C43.4169 27.4022 43.4744 27.0571 43.5894 26.712C43.9345 25.7918 44.5672 24.9865 45.43 24.5264C45.7176 24.2963 46.0627 24.1813 46.4653 24.1238ZM34.2716 24.7564C35.8246 24.814 37.3201 25.7918 37.9527 27.1722C38.0678 27.2872 38.1828 27.5173 38.0103 27.6898C37.8377 27.6898 37.7227 27.4598 37.6076 27.3447C37.3776 26.8846 37.0325 26.5395 36.6298 26.2519C36.7449 26.8846 36.7449 27.4598 36.3998 28.0349C36.1122 28.4951 35.4795 28.7827 34.9618 28.7251C34.5592 28.6101 34.1566 28.4376 33.869 28.0924C33.5239 27.7473 33.4089 27.1722 33.4089 26.712C33.4089 26.3094 33.5814 25.9643 33.754 25.6767C32.9487 25.8493 32.1435 26.1944 31.5108 26.712C31.3383 26.7696 31.2232 26.8846 31.0507 26.8846C30.8206 26.8271 30.7056 26.6545 30.7056 26.4244C30.7056 26.2519 30.8206 26.0793 30.9356 25.9643C31.3958 25.6192 31.8559 25.2741 32.4311 25.044C33.0063 24.814 33.6389 24.6989 34.2716 24.7564Z" fill="#262626"/>
<path d="M34.8481 18.6003C35.7108 18.6578 36.6886 18.8879 37.3788 19.463C37.6089 19.6356 37.839 19.8657 37.8965 20.0957C37.954 20.2683 37.954 20.3833 37.7815 20.4408C37.6089 20.4408 37.4364 20.2683 37.3213 20.1532C36.6886 19.6931 35.9409 19.4055 35.1357 19.4055C34.6755 19.4055 34.2729 19.5206 33.8128 19.6356C32.95 19.8081 32.1448 20.2683 31.6271 20.9585C31.4546 21.131 31.3395 21.3611 31.0519 21.4186C30.7643 21.4761 30.4768 21.2461 30.4768 20.9585C30.4192 20.7284 30.5918 20.4984 30.7068 20.3258C31.397 19.463 32.4323 18.8879 33.5252 18.6578C33.9278 18.5428 34.3879 18.5428 34.8481 18.6003ZM46.6391 19.1755C46.9267 19.2905 47.2143 19.5781 47.3868 19.8081C47.5594 19.9807 47.6744 20.2108 47.6744 20.4408C47.6744 20.7859 47.3293 21.016 46.9842 20.901C46.6966 20.7859 46.6391 20.4984 46.4091 20.2683C46.179 20.0957 45.8914 19.8657 45.6613 19.8081C44.9711 19.5781 44.2809 19.8657 43.8208 20.3258L43.3031 20.8435C43.3031 20.4408 43.5332 20.0957 43.8208 19.8657C44.511 19.1179 45.6613 18.8303 46.6391 19.1755Z" fill="#262626"/>
<path d="M42.8995 31.7734C42.8995 31.946 42.7844 32.1185 42.6694 32.2911C42.4393 32.6362 42.0367 32.8663 41.6341 32.9813C41.3465 33.0388 41.1164 32.8663 40.8863 32.9813C40.6563 32.9813 40.4262 33.0388 40.1961 32.9238C40.0811 32.8663 40.0811 32.6937 40.1961 32.5787C40.3687 32.3486 40.6563 32.1761 40.8863 32.1761C41.1164 32.1185 41.289 32.1185 41.4615 32.2911L41.519 32.6937C41.8066 32.5787 41.9217 32.4061 42.1517 32.2336L42.8995 31.7734Z" fill="#262626"/>
<path d="M35.3647 34.875C35.5372 34.875 35.6522 34.99 35.7673 35.1051L36.515 35.5077C37.1477 35.7953 37.8379 35.9678 38.4706 36.1404C39.3334 36.428 40.1961 36.4855 41.0589 36.4855C41.7491 36.543 42.3818 36.6005 43.0145 36.543L43.2445 36.658C42.2092 37.1757 40.8863 37.2907 39.736 37.2332C38.4131 37.1757 37.0902 36.7731 35.9398 36.1979C35.5947 35.9678 35.1921 35.7378 35.1346 35.2776C35.0771 35.1051 35.1921 34.875 35.3647 34.875Z" fill="#262626"/>
<path d="M37.2056 9.57456C39.1348 9.68489 41.0267 10.153 42.7848 10.955C43.59 11.3576 44.4528 11.7602 45.2005 12.2779C45.6606 12.5655 46.1208 12.9106 46.4659 13.3132L47.7313 14.7511C47.2136 14.9812 46.696 14.9237 46.1783 14.8662C45.2005 14.7511 44.2227 14.6361 43.2449 14.6936L42.7848 14.6361L42.3822 14.3485L41.692 13.8884C41.692 14.1184 41.6344 14.291 41.5194 14.5211C41.4044 14.6361 41.2893 14.6936 41.1168 14.6936C40.8867 14.6361 40.7142 14.5211 40.4841 14.5211C37.5233 14.0847 34.5106 14.143 31.5689 14.6936H30.9362L29.9009 14.3485C29.9584 14.8662 30.131 15.3838 30.0735 15.844C30.0159 16.074 30.0159 16.3041 29.9009 16.4766C29.4983 17.2819 29.0381 18.0296 28.693 18.8924C28.2904 19.8702 27.9453 20.9055 27.7152 21.9408C27.7152 22.0558 27.6577 22.1709 27.5427 22.2284L26.8525 22.3434C27.1401 22.8611 27.1976 23.4938 27.1401 24.0689C27.0826 24.7591 26.9675 25.5644 26.6224 26.1395C27.025 26.6572 27.1976 27.3474 27.1976 28.0376C27.2551 29.1304 27.1976 30.1658 26.795 31.2011C26.6799 31.4311 26.5074 31.7187 26.2198 31.8338C26.1623 31.8913 25.9897 31.8913 25.9897 31.7762C25.8747 31.5462 25.8747 31.2586 25.8172 31.0285C25.7021 30.1658 25.2995 29.3605 24.6668 28.7278C24.2067 28.3252 23.689 27.9226 23.1714 27.635C22.8263 27.52 22.5387 27.4049 22.2511 27.1749L21.906 26.7147C21.2158 24.8742 20.9857 22.8611 21.2158 20.9055C21.4603 18.6135 22.1855 16.3988 23.3439 14.406C23.9191 13.4857 24.6093 12.6805 25.357 11.9328C25.9322 11.4151 26.5074 10.955 27.1401 10.6099L27.9453 10.3223L29.7859 9.6896L30.8787 9.57456H33.3519C34.6748 9.57456 35.8827 9.45953 37.2056 9.57456Z" fill="#262626"/>
</g>
</svg>
